<svg width="298" height="77" viewBox="0 0 298 77" fill="none" xmlns="http://www.w3.org/2000/svg">
<path d="M83.52 52.0001V26.0801H99.126V30.4181H87.858V36.8801H96.966V41.2001H87.858V52.0001H83.52Z" fill="#1DA1F2"/>
<path d="M107.097 52.5401C105.693 52.5401 104.505 52.2761 103.533 51.7481C102.561 51.2081 101.823 50.4941 101.319 49.6061C100.827 48.7181 100.581 47.7401 100.581 46.6721C100.581 45.7361 100.737 44.8961 101.049 44.1521C101.361 43.3961 101.841 42.7481 102.489 42.2081C103.137 41.6561 103.977 41.2061 105.009 40.8581C105.789 40.6061 106.701 40.3781 107.745 40.1741C108.801 39.9701 109.941 39.7841 111.165 39.6161C112.401 39.4361 113.691 39.2441 115.035 39.0401L113.487 39.9221C113.499 38.5781 113.199 37.5881 112.587 36.9521C111.975 36.3161 110.943 35.9981 109.491 35.9981C108.615 35.9981 107.769 36.2021 106.953 36.6101C106.137 37.0181 105.567 37.7201 105.243 38.7161L101.283 37.4741C101.763 35.8301 102.675 34.5101 104.019 33.5141C105.375 32.5181 107.199 32.0201 109.491 32.0201C111.219 32.0201 112.737 32.3021 114.045 32.8661C115.365 33.4301 116.343 34.3541 116.979 35.6381C117.327 36.3221 117.537 37.0241 117.609 37.7441C117.681 38.4521 117.717 39.2261 117.717 40.0661V52.0001H113.919V47.7881L114.549 48.4721C113.673 49.8761 112.647 50.9081 111.471 51.5681C110.307 52.2161 108.849 52.5401 107.097 52.5401ZM107.961 49.0841C108.945 49.0841 109.785 48.9101 110.481 48.5621C111.177 48.2141 111.729 47.7881 112.137 47.2841C112.557 46.7801 112.839 46.3061 112.983 45.8621C113.211 45.3101 113.337 44.6801 113.361 43.9721C113.397 43.2521 113.415 42.6701 113.415 42.2261L114.747 42.6221C113.439 42.8261 112.317 43.0061 111.381 43.1621C110.445 43.3181 109.641 43.4681 108.969 43.6121C108.297 43.7441 107.703 43.8941 107.187 44.0621C106.683 44.2421 106.257 44.4521 105.909 44.6921C105.561 44.9321 105.291 45.2081 105.099 45.5201C104.919 45.8321 104.829 46.1981 104.829 46.6181C104.829 47.0981 104.949 47.5241 105.189 47.8961C105.429 48.2561 105.777 48.5441 106.233 48.7601C106.701 48.9761 107.277 49.0841 107.961 49.0841Z" fill="#1DA1F2"/>
<path d="M135.849 52.0001V42.6401C135.849 42.0281 135.807 41.3501 135.723 40.6061C135.639 39.8621 135.441 39.1481 135.129 38.4641C134.829 37.7681 134.373 37.1981 133.761 36.7541C133.161 36.3101 132.345 36.0881 131.313 36.0881C130.761 36.0881 130.215 36.1781 129.675 36.3581C129.135 36.5381 128.643 36.8501 128.199 37.2941C127.767 37.7261 127.419 38.3261 127.155 39.0941C126.891 39.8501 126.759 40.8221 126.759 42.0101L124.185 40.9121C124.185 39.2561 124.503 37.7561 125.139 36.4121C125.787 35.0681 126.735 34.0001 127.983 33.2081C129.231 32.4041 130.767 32.0021 132.591 32.0021C134.031 32.0021 135.219 32.2421 136.155 32.7221C137.091 33.2021 137.835 33.8141 138.387 34.5581C138.939 35.3021 139.347 36.0941 139.611 36.9341C139.875 37.7741 140.043 38.5721 140.115 39.3281C140.199 40.0721 140.241 40.6781 140.241 41.1461V52.0001H135.849ZM122.367 52.0001V32.5601H126.237V38.5901H126.759V52.0001H122.367Z" fill="#1DA1F2"/>
<path d="M152.444 52.5401C150.044 52.5401 148.094 52.0001 146.594 50.9201C145.094 49.8401 144.182 48.3221 143.858 46.3661L148.286 45.6821C148.514 46.6421 149.018 47.3981 149.798 47.9501C150.578 48.5021 151.562 48.7781 152.75 48.7781C153.794 48.7781 154.598 48.5741 155.162 48.1661C155.738 47.7461 156.026 47.1761 156.026 46.4561C156.026 46.0121 155.918 45.6581 155.702 45.3941C155.498 45.1181 155.042 44.8541 154.334 44.6021C153.626 44.3501 152.54 44.0321 151.076 43.6481C149.444 43.2161 148.148 42.7541 147.188 42.2621C146.228 41.7581 145.538 41.1641 145.118 40.4801C144.698 39.7961 144.488 38.9681 144.488 37.9961C144.488 36.7841 144.806 35.7281 145.442 34.8281C146.078 33.9281 146.966 33.2381 148.106 32.7581C149.246 32.2661 150.59 32.0201 152.138 32.0201C153.65 32.0201 154.988 32.2541 156.152 32.7221C157.328 33.1901 158.276 33.8561 158.996 34.7201C159.716 35.5841 160.16 36.5981 160.328 37.7621L155.9 38.5541C155.792 37.7261 155.414 37.0721 154.766 36.5921C154.13 36.1121 153.278 35.8421 152.21 35.7821C151.19 35.7221 150.368 35.8781 149.744 36.2501C149.12 36.6101 148.808 37.1201 148.808 37.7801C148.808 38.1521 148.934 38.4701 149.186 38.7341C149.438 38.9981 149.942 39.2621 150.698 39.5261C151.466 39.7901 152.606 40.1141 154.118 40.4981C155.666 40.8941 156.902 41.3501 157.826 41.8661C158.762 42.3701 159.434 42.9761 159.842 43.6841C160.262 44.3921 160.472 45.2501 160.472 46.2581C160.472 48.2141 159.758 49.7501 158.33 50.8661C156.914 51.9821 154.952 52.5401 152.444 52.5401Z" fill="#1DA1F2"/>
<path d="M164.52 52.0001V26.0801H174.798C176.55 26.0801 177.984 26.4341 179.1 27.1421C180.228 27.8381 181.062 28.7321 181.602 29.8241C182.154 30.9161 182.43 32.0441 182.43 33.2081C182.43 34.6361 182.088 35.8481 181.404 36.8441C180.732 37.8401 179.814 38.5121 178.65 38.8601V37.9601C180.282 38.3321 181.518 39.1061 182.358 40.2821C183.21 41.4581 183.636 42.7961 183.636 44.2961C183.636 45.8321 183.342 47.1761 182.754 48.3281C182.166 49.4801 181.29 50.3801 180.126 51.0281C178.974 51.6761 177.546 52.0001 175.842 52.0001H164.52ZM168.912 47.9141H175.302C176.058 47.9141 176.736 47.7641 177.336 47.4641C177.936 47.1521 178.404 46.7201 178.74 46.1681C179.088 45.6041 179.262 44.9381 179.262 44.1701C179.262 43.4741 179.112 42.8501 178.812 42.2981C178.512 41.7461 178.074 41.3081 177.498 40.9841C176.922 40.6481 176.232 40.4801 175.428 40.4801H168.912V47.9141ZM168.912 36.4301H174.744C175.368 36.4301 175.926 36.3101 176.418 36.0701C176.91 35.8301 177.3 35.4761 177.588 35.0081C177.876 34.5401 178.02 33.9641 178.02 33.2801C178.02 32.3801 177.732 31.6301 177.156 31.0301C176.58 30.4301 175.776 30.1301 174.744 30.1301H168.912V36.4301Z" fill="#E668B3"/>
<path d="M195.817 52.5401C193.873 52.5401 192.175 52.1021 190.723 51.2261C189.271 50.3501 188.143 49.1441 187.339 47.6081C186.547 46.0601 186.151 44.2841 186.151 42.2801C186.151 40.2401 186.559 38.4521 187.375 36.9161C188.191 35.3801 189.325 34.1801 190.777 33.3161C192.229 32.4521 193.909 32.0201 195.817 32.0201C197.773 32.0201 199.477 32.4581 200.929 33.3341C202.381 34.2101 203.509 35.4221 204.313 36.9701C205.117 38.5061 205.519 40.2761 205.519 42.2801C205.519 44.2961 205.111 46.0781 204.295 47.6261C203.491 49.1621 202.363 50.3681 200.911 51.2441C199.459 52.1081 197.761 52.5401 195.817 52.5401ZM195.817 48.4721C197.545 48.4721 198.829 47.8961 199.669 46.7441C200.509 45.5921 200.929 44.1041 200.929 42.2801C200.929 40.3961 200.503 38.8961 199.651 37.7801C198.799 36.6521 197.521 36.0881 195.817 36.0881C194.653 36.0881 193.693 36.3521 192.937 36.8801C192.193 37.3961 191.641 38.1221 191.281 39.0581C190.921 39.9821 190.741 41.0561 190.741 42.2801C190.741 44.1641 191.167 45.6701 192.019 46.7981C192.883 47.9141 194.149 48.4721 195.817 48.4721Z" fill="#E668B3"/>
<path d="M218.071 52.5401C216.127 52.5401 214.429 52.1021 212.977 51.2261C211.525 50.3501 210.397 49.1441 209.593 47.6081C208.801 46.0601 208.405 44.2841 208.405 42.2801C208.405 40.2401 208.813 38.4521 209.629 36.9161C210.445 35.3801 211.579 34.1801 213.031 33.3161C214.483 32.4521 216.163 32.0201 218.071 32.0201C220.027 32.0201 221.731 32.4581 223.183 33.3341C224.635 34.2101 225.763 35.4221 226.567 36.9701C227.371 38.5061 227.773 40.2761 227.773 42.2801C227.773 44.2961 227.365 46.0781 226.549 47.6261C225.745 49.1621 224.617 50.3681 223.165 51.2441C221.713 52.1081 220.015 52.5401 218.071 52.5401ZM218.071 48.4721C219.799 48.4721 221.083 47.8961 221.923 46.7441C222.763 45.5921 223.183 44.1041 223.183 42.2801C223.183 40.3961 222.757 38.8961 221.905 37.7801C221.053 36.6521 219.775 36.0881 218.071 36.0881C216.907 36.0881 215.947 36.3521 215.191 36.8801C214.447 37.3961 213.895 38.1221 213.535 39.0581C213.175 39.9821 212.995 41.0561 212.995 42.2801C212.995 44.1641 213.421 45.6701 214.273 46.7981C215.137 47.9141 216.403 48.4721 218.071 48.4721Z" fill="#E668B3"/>
<path d="M238.788 52.5401C236.388 52.5401 234.438 52.0001 232.938 50.9201C231.438 49.8401 230.526 48.3221 230.202 46.3661L234.63 45.6821C234.858 46.6421 235.362 47.3981 236.142 47.9501C236.922 48.5021 237.906 48.7781 239.094 48.7781C240.138 48.7781 240.942 48.5741 241.506 48.1661C242.082 47.7461 242.37 47.1761 242.37 46.4561C242.37 46.0121 242.262 45.6581 242.046 45.3941C241.842 45.1181 241.386 44.8541 240.678 44.6021C239.97 44.3501 238.884 44.0321 237.42 43.6481C235.788 43.2161 234.492 42.7541 233.532 42.2621C232.572 41.7581 231.882 41.1641 231.462 40.4801C231.042 39.7961 230.832 38.9681 230.832 37.9961C230.832 36.7841 231.15 35.7281 231.786 34.8281C232.422 33.9281 233.31 33.2381 234.45 32.7581C235.59 32.2661 236.934 32.0201 238.482 32.0201C239.994 32.0201 241.332 32.2541 242.496 32.7221C243.672 33.1901 244.62 33.8561 245.34 34.7201C246.06 35.5841 246.504 36.5981 246.672 37.7621L242.244 38.5541C242.136 37.7261 241.758 37.0721 241.11 36.5921C240.474 36.1121 239.622 35.8421 238.554 35.7821C237.534 35.7221 236.712 35.8781 236.088 36.2501C235.464 36.6101 235.152 37.1201 235.152 37.7801C235.152 38.1521 235.278 38.4701 235.53 38.7341C235.782 38.9981 236.286 39.2621 237.042 39.5261C237.81 39.7901 238.95 40.1141 240.462 40.4981C242.01 40.8941 243.246 41.3501 244.17 41.8661C245.106 42.3701 245.778 42.9761 246.186 43.6841C246.606 44.3921 246.816 45.2501 246.816 46.2581C246.816 48.2141 246.102 49.7501 244.674 50.8661C243.258 51.9821 241.296 52.5401 238.788 52.5401Z" fill="#E668B3"/>
<path d="M262.152 52.0001C260.868 52.2401 259.608 52.3421 258.372 52.3061C257.148 52.2821 256.05 52.0601 255.078 51.6401C254.106 51.2081 253.368 50.5301 252.864 49.6061C252.42 48.7661 252.186 47.9081 252.162 47.0321C252.138 46.1561 252.126 45.1661 252.126 44.0621V27.1601H256.446V43.8101C256.446 44.5901 256.452 45.2741 256.464 45.8621C256.488 46.4501 256.614 46.9301 256.842 47.3021C257.274 48.0221 257.964 48.4241 258.912 48.5081C259.86 48.5921 260.94 48.5441 262.152 48.3641V52.0001ZM248.598 35.9621V32.5601H262.152V35.9621H248.598Z" fill="#E668B3"/>
<path d="M274.186 52.5401C272.218 52.5401 270.49 52.1141 269.002 51.2621C267.514 50.4101 266.35 49.2281 265.51 47.7161C264.682 46.2041 264.268 44.4641 264.268 42.4961C264.268 40.3721 264.676 38.5301 265.492 36.9701C266.308 35.3981 267.442 34.1801 268.894 33.3161C270.346 32.4521 272.026 32.0201 273.934 32.0201C275.95 32.0201 277.66 32.4941 279.064 33.4421C280.48 34.3781 281.53 35.7041 282.214 37.4201C282.898 39.1361 283.156 41.1581 282.988 43.4861H278.686V41.9021C278.674 39.7901 278.302 38.2481 277.57 37.2761C276.838 36.3041 275.686 35.8181 274.114 35.8181C272.338 35.8181 271.018 36.3701 270.154 37.4741C269.29 38.5661 268.858 40.1681 268.858 42.2801C268.858 44.2481 269.29 45.7721 270.154 46.8521C271.018 47.9321 272.278 48.4721 273.934 48.4721C275.002 48.4721 275.92 48.2381 276.688 47.7701C277.468 47.2901 278.068 46.6001 278.488 45.7001L282.772 46.9961C282.028 48.7481 280.876 50.1101 279.316 51.0821C277.768 52.0541 276.058 52.5401 274.186 52.5401ZM267.49 43.4861V40.2101H280.864V43.4861H267.49Z" fill="#E668B3"/>
<path d="M287.004 52.0001V32.5601H290.838V37.2941L290.37 36.6821C290.61 36.0341 290.928 35.4461 291.324 34.9181C291.732 34.3781 292.218 33.9341 292.782 33.5861C293.262 33.2621 293.79 33.0101 294.366 32.8301C294.954 32.6381 295.554 32.5241 296.166 32.4881C296.778 32.4401 297.372 32.4641 297.948 32.5601V36.6101C297.372 36.4421 296.706 36.3881 295.95 36.4481C295.206 36.5081 294.534 36.7181 293.934 37.0781C293.334 37.4021 292.842 37.8161 292.458 38.3201C292.086 38.8241 291.81 39.4001 291.63 40.0481C291.45 40.6841 291.36 41.3741 291.36 42.1181V52.0001H287.004Z" fill="#E668B3"/>
<rect y="40.8691" width="14.2154" height="23.6923" rx="7.10769" fill="#1DA1F2"/>
<rect x="17.7693" y="36.7231" width="14.2154" height="27.8385" rx="7.10769" fill="#1DA1F2"/>
<rect x="35.5385" y="33.7615" width="14.2154" height="30.8" rx="7.10769" fill="#1DA1F2"/>
<rect x="53.3077" width="14.2154" height="58.0462" rx="7.10769" fill="#E668B3"/>
<rect x="70.4846" y="62.7847" width="14.2154" height="21.9154" rx="7.10769" transform="rotate(90 70.4846 62.7847)" fill="#E668B3"/>
</svg>
